<svg width="96" height="96" viewBox="0 0 96 96" fill="none" xmlns="http://www.w3.org/2000/svg">
<circle cx="48" cy="48" r="48" fill="#5546FF"/>
<rect x="48" y="19" width="58" height="6" rx="3" transform="rotate(90 48 19)" fill="white"/>
<rect x="54" y="70" width="10" height="6" rx="3" fill="white"/>
<rect x="54" y="22" width="16" height="6" rx="3" fill="white"/>
<rect x="54" y="34" width="6" height="6" rx="3" fill="white"/>
<rect x="66" y="34" width="10" height="6" rx="3" fill="white"/>
<rect x="24" y="37" width="8" height="6" rx="3" transform="rotate(90 24 37)" fill="white"/>
<rect x="36" y="27" width="24" height="6" rx="3" transform="rotate(90 36 27)" fill="white"/>
<rect x="24" y="53" width="16" height="6" rx="3" transform="rotate(90 24 53)" fill="white"/>
<rect x="54" y="46" width="27" height="6" rx="3" fill="white"/>
<rect x="36" y="57" width="14" height="6" rx="3" transform="rotate(90 36 57)" fill="white"/>
<rect x="54" y="58" width="10" height="6" rx="3" fill="white"/>
<rect x="70" y="58.1023" width="6" height="6" rx="3" transform="rotate(-0.976616 70 58.1023)" fill="white"/>
</svg>
